# xmcd CD database file
#
# Track frame offsets:
#	150
#	22042
#	39452
#	60195
#	84691
#	107940
#	126513
#	145198
#	167489
#	188330
#	206458
#	233446
#	253034
#	271493
#	292188
#	313010
#	335442
#
# Disc length: 4824 seconds
#
# Revision: 2
# Processed by: cddbd v1.5.2PL0 Copyright (c) Steve Scherf et al.
# Submitted via: CDex 1.51
#
DISCID=f212d611
DTITLE=Various Artist - The Colour of Salsa  [CD 1-3]
DYEAR=2011
DGENRE=Salsa
TTITLE0=Ana Segura - Me Canse De Ser
TTITLE1=Los Gardenias - kikiriki
TTITLE2=Conchita Moreno - Amarte Asi
TTITLE3=Emilio Campos - La Musica Y Yo
TTITLE4=Las Chicas Marquez - Nada Cambio
TTITLE5=Carlos Heria - Pero Eres Tu
TTITLE6=Esme Mendoza - Tu No Me Enganas
TTITLE7=Salvador Sanchez - Rosalbita
TTITLE8=Laura Lopez - Cuango Te Vea
TTITLE9=Pablo Pacheco - No Me Molesto
TTITLE10=Alicia Morales - Las Perlas Del Eden
TTITLE11=Raul Robles - Buscando Un Amor
TTITLE12=Linda Zamora - Escucha Primo
TTITLE13=Santos Salcido - A Puro Dolor
TTITLE14=Angelina Segovia - Soy Antilliana
TTITLE15=Vidal Velasquez - El Drama
TTITLE16=Adriana Caldesa - Lágrimas Negras
EXTD=YEAR: 2011
EXTT0=
EXTT1=
EXTT2=
EXTT3=
EXTT4=
EXTT5=
EXTT6=
EXTT7=
EXTT8=
EXTT9=
EXTT10=
EXTT11=
EXTT12=
EXTT13=
EXTT14=
EXTT15=
EXTT16=
PLAYORDER=
